# AST/ASF file generated using VICON BodyLanguage
# -----------------------------------------------
:version 1.10
:name VICON
:units
  mass 1.0
  length 0.45
  angle deg
:documentation
   .ast/.asf automatically generated from VICON data using
   VICON BodyBuilder and BodyLanguage model FoxedUp or BRILLIANT.MOD
:root
   order TX TY TZ RX RY RZ
   axis XYZ
   position 0 0 0  
   orientation 0 0 0 
:bonedata
  begin
     id 1 
     name lhipjoint
     direction 0.707368 -0.647095 0.284426 
     length 2.60678 
     axis 0 0 0  XYZ
  end
  begin
     id 2 
     name lfemur
     direction 0.34202 -0.939693 0  
     length 6.63812  
     axis 0 0 20  XYZ
    dof rx ry rz
    limits (-160.0 20.0)
           (-70.0 70.0)
           (-60.0 70.0)
  end
  begin
     id 3 
     name ltibia
     direction 0.34202 -0.939693 0   
     length 7.51178   
     axis 0 0 20   XYZ
    dof rx
    limits (-10.0 170.0)
  end
  begin
     id 4 
     name lfoot
     direction 0.121251 -0.333133 0.935051   
     length 1.83716   
     axis -90 7.62852e-016 20   XYZ
    dof rx rz
    limits (-45.0 90.0)
           (-70.0 20.0)
  end
  begin
     id 5 
     name ltoes
     direction 1.53611e-011 -4.21962e-011 1   
     length 0.916133   
     axis -90 7.62852e-016 20   XYZ
    dof rx
    limits (-90.0 20.0)
  end
  begin
     id 6 
     name rhipjoint
     direction -0.692419 -0.660507 0.290321   
     length 2.55385  
     axis 0 0 0  XYZ 
  end
  begin
     id 7 
     name rfemur
     direction -0.34202 -0.939693 0   
     length 7.29079   
     axis 0 0 -20   XYZ
    dof rx ry rz
    limits (-160.0 20.0)
           (-70.0 70.0)
           (-70.0 60.0)
  end
  begin
     id 8 
     name rtibia
     direction -0.34202 -0.939693 0   
     length 7.47143   
     axis 0 0 -20   XYZ
    dof rx
    limits (-10.0 170.0)
 end
 begin
     id 9 
     name rfoot
     direction -0.119907 -0.329441 0.936532   
     length 1.79439  
     axis -90 -7.62852e-016 -20   XYZ
    dof rx rz
    limits (-45.0 90.0)
           (-20.0 70.0)
  end
  begin
     id 10 
     name rtoes
     direction -1.53571e-011 -4.21961e-011 1   
     length 0.896039   
     axis -90 -7.62852e-016 -20   XYZ
    dof rx
    limits (-90.0 20.0)
  end
  begin
     id 11 
     name lowerback
     direction 0.0367721 0.992912 -0.113016   
     length 1.73542   
     axis 0 0 0   XYZ
    dof rx ry rz
    limits (-20.0 45.0)
           (-30.0 30.0)
           (-30.0 30.0)
  end
  begin
     id 12 
     name upperback
     direction -0.000314626 0.990678 0.136227   
     length 1.7514   
     axis 0 0 0   XYZ
    dof rx ry rz
    limits (-20.0 45.0)
           (-30.0 30.0)
           (-30.0 30.0)
  end
  begin
     id 13 
     name thorax
     direction -0.0226159 0.981151 0.191917   
     length 1.71471   
     axis 0 0 0   XYZ
    dof rx ry rz
    limits (-20.0 45.0)
           (-30.0 30.0)
           (-30.0 30.0)
  end
  begin
     id 14 
     name lowerneck
     direction 0.0219333 0.998071 0.0580739   
     length 1.65882   
     axis 0 0 0   XYZ
    dof rx ry rz
    limits (-20.0 45.0)
           (-30.0 30.0)
           (-30.0 30.0)
  end
  begin
     id 15 
     name upperneck
     direction 0.0384529 0.980058 -0.194957   
     length 1.6612   
     axis 0 0 0   XYZ
    dof rx ry rz
    limits (-20.0 45.0)
           (-30.0 30.0)
           (-30.0 30.0)
  end
  begin
     id 16
     name head
     direction 0.00592123 0.997421 -0.0715234  
     length 1.68077  
     axis 0 0 0   XYZ
    dof rx ry rz
    limits (-20.0 45.0)
           (-30.0 30.0)
           (-30.0 30.0)
  end
  begin
     id 17 
     name lclavicle
     direction 0.904803 0.417826 0.0821728  
     length 3.42227  
     axis 0 0 0   XYZ
    dof ry rz
    limits (-20.0 10.0)
           (0.0 20.0)
  end
  begin
     id 18 
     name lhumerus
     direction 1 -4.48965e-011 -2.68786e-027   
     length 5.11878   
     axis -180 -30 -90   XYZ
    dof rx ry rz
    limits (-60.0 90.0)
           (-90.0 90.0)
           (-90.0 90.0)
  end
  begin
     id 19
     name lradius
     direction 1 -4.48965e-011 2.61168e-028   
     length 3.59971   
     axis -180 -30 -90   XYZ
    dof rx
    limits (-10.0 170.0)
  end
  begin
     id 20
     name lwrist
     direction 1 -4.48965e-011 1.58672e-027   
     length 1.79985   
     axis -1.65735e-015 90 90   XYZ
    dof ry
    limits (-180.0 0.0)
 end
  begin
     id 21 
     name lhand
     direction 1 -4.48942e-011 3.17344e-027   
     length 0.62877   
     axis -2.02492e-015 90 90   XYZ
    dof rx rz
    limits (-90.0 90.0)
           (-45.0 45.0)
  end
  begin
     id 22 
     name lfingers
     direction 1 -4.49011e-011 6.34687e-027   
     length 0.506931   
     axis -4.04985e-015 90 90   XYZ
    dof rx
    limits (0.0 90.0)
  end
  begin
     id 23
     name lthumb
     direction 0.707107 -6.34982e-011 0.707107   
     length 0.727854   
     axis -90 45 2.85299e-015   XYZ
    dof rx rz
    limits (-45.0 45.0)
           (-45.0 45.0)
  end
  begin
     id 24 
     name rclavicle
     direction -0.945647 0.32488 0.0143075   
     length 3.52737  
     axis 0 0 0   XYZ 
    dof ry rz
    limits (-10.0 20.0)
           (-20.0 0.0)
  end
  begin
     id 25 
     name rhumerus
     direction -1 -4.48962e-011 1.92182e-027  
     length 5.4902   
     axis -180 30 90   XYZ
    dof rx ry rz
    limits (-90.0 60.0)
           (-90.0 90.0)
           (-90.0 90.0)
  end
  begin
     id 26 
     name rradius
     direction -1 -4.48967e-011 -5.97193e-028   
     length 3.20659   
     axis -180 30 90   XYZ
    dof rx
    limits (-10.0 170.0)
  end
  begin
     id 27 
     name rwrist
     direction -1 -4.48964e-011 1.58672e-027   
     length 1.6033   
     axis -1.65735e-015 -90 -90   XYZ
    dof ry
    limits (-180.0 0.0)
  end
  begin
     id 28
     name rhand
     direction -1 -4.49006e-011 3.17344e-027   
     length 0.691885   
     axis -2.02492e-015 -90 -90   XYZ
    dof rx rz
    limits (-90.0 90.0)
           (-45.0 45.0)
  end
  begin
     id 29
     name rfingers
     direction -1 -4.48908e-011 6.34687e-027   
     length 0.557815   
     axis -4.04985e-015 -90 -90   XYZ
    dof rx
    limits (0.0 90.0)
  end
  begin
     id 30
     name rthumb
     direction -0.707107 -6.34999e-011 0.707107   
     length 0.800915   
     axis -90 -45 -2.85299e-015   XYZ
    dof rx rz
    limits (-45.0 45.0)
           (-45.0 45.0)
  end
:hierarchy
  begin
    root lhipjoint rhipjoint lowerback
    lhipjoint lfemur
    lfemur ltibia
    ltibia lfoot
    lfoot ltoes
    rhipjoint rfemur
    rfemur rtibia
    rtibia rfoot
    rfoot rtoes
    lowerback upperback
    upperback thorax
    thorax lowerneck lclavicle rclavicle
    lowerneck upperneck
    upperneck head
    lclavicle lhumerus
    lhumerus lradius
    lradius lwrist
    lwrist lhand lthumb
    lhand lfingers
    rclavicle rhumerus
    rhumerus rradius
    rradius rwrist
    rwrist rhand rthumb
    rhand rfingers
  end

#!OML:ASF I:\Actors\actors\Patient Classification 1\Patient 1\Session 1\Subject1.ASF
:FULLY-SPECIFIED
:DEGREES
95
root 0.811616 17.4766 8.69045 10.3472 1.27708 -8.95224
lowerback -4.14982 0.91648 6.23167
upperback -9.7275 1.38869 1.75032
thorax -7.82527 0.309857 -1.66538
lowerneck -3.16998 -11.7164 -11.2531
upperneck 18.6955 -17.8648 13.3047
head 8.55039 -8.37979 4.49956
rclavicle 2.38542e-014 -1.63003e-014
rhumerus -50.6283 -32.495 -61.1646
rradius 18.3833
rwrist 49.687
rhand 6.46551 -29.8209
rfingers 7.12502
rthumb 31.7668 -57.0733
lclavicle 2.38542e-014 -1.63003e-014
lhumerus -55.6007 37.1233 53.885
lradius 14.3176
lwrist -49.9057
lhand -22.1456 -7.60421
lfingers 7.12502
lthumb 4.26819 22.3328
rfemur -4.55975 25.6609 25.3067
rtibia 1.77047
rfoot -12.488 -24.8068
rtoes 3.20168
lfemur 3.79677 -49.6162 -9.66045
ltibia -4.76775
lfoot -25.3955 54.0576
ltoes 10.3885
96
root 0.812111 17.476 8.69469 10.3599 1.26297 -8.97584
lowerback -4.21468 0.894595 6.24437
upperback -9.70871 1.35512 1.79134
thorax -7.77042 0.295845 -1.62744
lowerneck -3.24864 -11.6316 -11.223
upperneck 18.6886 -17.7358 13.2935
head 8.54022 -8.31417 4.50478
rclavicle 2.09718e-014 1.35174e-014
rhumerus -50.4007 -32.2145 -61.509
rradius 18.44
rwrist 49.3486
rhand 6.51247 -29.8317
rfingers 7.12502
rthumb 31.8115 -57.0752
lclavicle 2.09718e-014 1.35174e-014
lhumerus -55.5105 37.077 54.0997
lradius 14.3672
lwrist -49.6522
lhand -22.2153 -7.63633
lfingers 7.12502
lthumb 4.20087 22.302
rfemur -4.5665 25.618 25.3255
rtibia 1.76492
rfoot -12.4607 -24.7454
rtoes 3.08412
lfemur 3.8253 -49.6718 -9.6616
ltibia -4.77043
lfoot -25.1706 54.1645
ltoes 10.0687
97
root 0.812413 17.4755 8.69761 10.3901 1.25666 -8.98892
lowerback -4.27373 0.885518 6.25583
upperback -9.70178 1.33872 1.81224
thorax -7.73033 0.288988 -1.61056
lowerneck -3.37583 -11.568 -11.1395
upperneck 18.7149 -17.6291 13.2214
head 8.54228 -8.25681 4.4754
rclavicle 6.95746e-016 1.31198e-014
rhumerus -50.1904 -31.9537 -61.8591
rradius 18.5188
rwrist 48.9331
rhand 6.5513 -29.8346
rfingers 7.12502
rthumb 31.8485 -57.0708
lclavicle 6.95746e-016 1.31198e-014
lhumerus -55.2494 36.8104 54.5931
lradius 14.4577
lwrist -49.1156
lhand -22.2055 -7.69084
lfingers 7.12502
lthumb 4.21034 22.2473
rfemur -4.60913 25.536 25.3234
rtibia 1.78523
rfoot -12.3771 -24.6733
rtoes 2.74205
lfemur 3.74637 -49.5947 -9.58655
ltibia -4.74911
lfoot -25.0187 54.107
ltoes 10.043
98
root 0.812726 17.4749 8.70004 10.4136 1.25031 -9.02942
lowerback -4.30587 0.897598 6.30337
upperback -9.70807 1.35299 1.81616
thorax -7.71777 0.293021 -1.63259
lowerneck -3.50558 -11.5093 -10.9407
upperneck 18.798 -17.5268 13.0502
head 8.54418 -8.19974 4.39505
rclavicle 1.96797e-014 3.57812e-015
rhumerus -50.069 -31.7578 -62.1312
rradius 18.5925
rwrist 48.6024
rhand 6.56795 -29.8085
rfingers 7.12502
rthumb 31.8643 -57.0416
lclavicle 1.96797e-014 3.57812e-015
lhumerus -54.9781 36.5211 55.0502
lradius 14.5148
lwrist -48.5871
lhand -22.0446 -8.02547
lfingers 7.12502
lthumb 4.36571 21.9095
rfemur -4.63229 25.5366 25.3641
rtibia 1.79522
rfoot -12.3494 -24.6797
rtoes 2.54787
lfemur 3.70257 -49.5234 -9.4983
ltibia -4.75559
lfoot -25.035 54.0453
ltoes 10.1712
99
root 0.813408 17.4747 8.70325 10.4161 1.24666 -9.06373
lowerback -4.31641 0.911991 6.35398
upperback -9.70973 1.37152 1.81232
thorax -7.712 0.298493 -1.66492
lowerneck -3.68978 -11.4853 -10.7847
upperneck 18.9146 -17.474 12.8927
head 8.57995 -8.16434 4.31507
rclavicle 3.37934e-015 -3.37934e-014
rhumerus -49.9401 -31.4612 -62.4974
rradius 18.7019
rwrist 48.2047
rhand 6.57099 -29.8371
rfingers 7.12502
rthumb 31.8672 -57.0696
lclavicle 3.37934e-015 -3.37934e-014
lhumerus -54.661 36.1785 55.576
lradius 14.5777
lwrist -47.9564
lhand -21.8164 -8.54513
lfingers 7.12502
lthumb 4.5861 21.3852
rfemur -4.61559 25.561 25.4123
rtibia 1.78526
rfoot -12.3483 -24.7118
rtoes 2.46053
lfemur 3.74619 -49.5814 -9.49439
ltibia -4.76494
lfoot -25.3707 54.0564
ltoes 10.5043
100
root 0.814271 17.4748 8.70636 10.4279 1.25086 -9.03513
lowerback -4.32964 0.921404 6.36183
upperback -9.71836 1.38168 1.78046
thorax -7.71234 0.301403 -1.70287
lowerneck -3.90696 -11.3998 -10.6777
upperneck 19.0565 -17.348 12.8163
head 8.63312 -8.08939 4.27773
rclavicle -9.64106e-015 -1.19271e-015
rhumerus -49.7933 -31.0875 -62.9749
rradius 18.8597
rwrist 47.691
rhand 6.54672 -29.8949
rfingers 7.12502
rthumb 31.8441 -57.1319
lclavicle -9.64106e-015 -1.19271e-015
lhumerus -54.2816 35.721 56.233
lradius 14.7008
lwrist -47.188
lhand -21.6558 -8.75434
lfingers 7.12502
lthumb 4.74111 21.1726
rfemur -4.61193 25.6067 25.3825
rtibia 1.78243
rfoot -12.3435 -24.7609
rtoes 2.41651
lfemur 3.73986 -49.5973 -9.52902
ltibia -4.75372
lfoot -25.523 54.0351
ltoes 10.543
101
root 0.814654 17.475 8.70911 10.454 1.24194 -8.97483
lowerback -4.3574 0.931823 6.31748
upperback -9.73765 1.3924 1.75126
thorax -7.71615 0.308288 -1.70887
lowerneck -4.01832 -11.3046 -10.6105
upperneck 19.1461 -17.2215 12.8116
head 8.66009 -8.01786 4.27721
rclavicle -8.94531e-016 -2.0276e-014
rhumerus -49.6474 -30.7204 -63.4252
rradius 19.0244
rwrist 47.1109
rhand 6.50715 -29.9272
rfingers 7.12502
rthumb 31.8064 -57.1718
lclavicle -8.94531e-016 -2.0276e-014
lhumerus -53.871 35.1662 57.0097
lradius 14.8595
lwrist -46.2961
lhand -21.5513 -8.8414
lfingers 7.12502
lthumb 4.84201 21.0833
rfemur -4.64777 25.6199 25.3018
rtibia 1.81648
rfoot -12.3895 -24.7607
rtoes 2.46853
lfemur 3.69406 -49.5571 -9.57616
ltibia -4.72368
lfoot -25.4339 54.0062
ltoes 10.2946
102
root 0.814689 17.4754 8.71289 10.475 1.2222 -8.91716
lowerback -4.3987 0.93851 6.25293
upperback -9.75565 1.39784 1.74006
thorax -7.71161 0.315092 -1.68437
lowerneck -3.93149 -11.1741 -10.5212
upperneck 19.0347 -17.0383 12.8306
head 8.57539 -7.93135 4.3015
rclavicle 6.4605e-015 5.96354e-015
rhumerus -49.488 -30.3218 -63.8648
rradius 19.1799
rwrist 46.4481
rhand 6.48567 -29.9197
rfingers 7.12502
rthumb 31.786 -57.1684
lclavicle 6.4605e-015 5.96354e-015
lhumerus -53.4533 34.5675 57.8633
lradius 15.0032
lwrist -45.193
lhand -21.5789 -9.04597
lfingers 7.12502
lthumb 4.81543 20.8793
rfemur -4.67642 25.5742 25.2206
rtibia 1.84293
rfoot -12.4622 -24.6959
rtoes 2.66314
lfemur 3.713 -49.5971 -9.67176
ltibia -4.71298
lfoot -25.3545 54.0857
ltoes 10.1241
103
root 0.81433 17.476 8.71706 10.4845 1.20472 -8.85618
lowerback -4.43104 0.941722 6.18618
upperback -9.76889 1.39892 1.72497
thorax -7.70722 0.319787 -1.6628
lowerneck -3.82523 -11.0289 -10.4008
upperneck 18.8396 -16.8271 12.8516
head 8.45284 -7.83244 4.32635
rclavicle 8.34896e-015 -1.74931e-014
rhumerus -49.3526 -30.01 -64.233
rradius 19.3003
rwrist 45.8414
rhand 6.42479 -29.8392
rfingers 7.12502
rthumb 31.728 -57.0993
lclavicle 8.34896e-015 -1.74931e-014
lhumerus -53.0633 34.005 58.6552
lradius 15.1135
lwrist -44.0286
lhand -21.6984 -9.15652
lfingers 7.12502
lthumb 4.69996 20.7713
rfemur -4.66836 25.5715 25.1453
rtibia 1.8222
rfoot -12.4753 -24.6752
rtoes 2.90227
lfemur 3.78471 -49.7555 -9.80187
ltibia -4.72858
lfoot -25.4802 54.2401
ltoes 10.161
104
root 0.813885 17.4766 8.72136 10.4604 1.21056 -8.84819
lowerback -4.42877 0.94663 6.179
upperback -9.76789 1.40576 1.72648
thorax -7.70695 0.323844 -1.6574
lowerneck -3.91163 -10.916 -10.2747
upperneck 18.8309 -16.6501 12.7617
head 8.42254 -7.74345 4.29643
rclavicle -7.55382e-015 -5.56597e-015
rhumerus -49.266 -29.9371 -64.3751
rradius 19.3376
rwrist 45.4819
rhand 6.29571 -29.7138
rfingers 7.12502
rthumb 31.6051 -56.9982
lclavicle -7.55382e-015 -5.56597e-015
lhumerus -52.7552 33.6095 59.2544
lradius 15.2196
lwrist -43.2033
lhand -21.7484 -8.81711
lfingers 7.12502
lthumb 4.65171 21.1118
rfemur -4.59923 25.5994 25.1638
rtibia 1.7819
rfoot -12.4528 -24.7167
rtoes 2.87368
lfemur 3.90959 -49.9232 -9.90254
ltibia -4.75329
lfoot -25.9687 54.3031
ltoes 10.6931
105
root 0.814266 17.4768 8.72683 10.4201 1.24048 -8.86915
lowerback -4.41583 0.951156 6.22713
upperback -9.76849 1.41357 1.7309
thorax -7.71457 0.324208 -1.67978
lowerneck -4.05309 -10.831 -10.2045
upperneck 18.9339 -16.5162 12.6586
head 8.44969 -7.67399 4.26125
rclavicle 4.37326e-015 0
rhumerus -49.2177 -29.9453 -64.398
rradius 19.3148
rwrist 45.3102
rhand 6.1706 -29.5501
rfingers 7.12502
rthumb 31.4859 -56.8579
lclavicle 4.37326e-015 0
lhumerus -52.6388 33.529 59.4686
lradius 15.2912
lwrist -43.0093
lhand -21.7665 -8.15856
lfingers 7.12502
lthumb 4.63425 21.7708
rfemur -4.49736 25.5813 25.231
rtibia 1.74859
rfoot -12.4484 -24.7501
rtoes 2.73353
lfemur 4.0498 -50.0122 -9.98206
ltibia -4.77244
lfoot -26.2631 54.3038
ltoes 11.1806
